PathFileType	4	(X/Y/Z)	c:\Git\powerlifing_model_clean\simulations\HC835B\Session1\HC835B_CUT_0002\marker_experimental.trc
DataRate	CameraRate	NumFrames	NumMarkers	Units	OrigDataRate	OrigDataStartFrame	OrigNumFrames
240.000000	240.000000	5	38	mm	240.000000	10	82
Frame#	Time	RPSI			LPSI			RASI			LASI			RTH1			RTH2			RTH3			RTH4			RSK1			RSK2			RSK3			RSK4			RCAL1			RCAL2			RCAL3			RST			RPT			RTN			RFMB			RSMB			RVMB			RFMH			RSMH			RVMH			RPM			LTH1			LTH2			LTH3			LTH4			LSK1			LSK2			LSK3			LSK4			LCAL1			LCAL2			LCAL3			LFMH			LVMH			
		X1	Y1	Z1	X2	Y2	Z2	X3	Y3	Z3	X4	Y4	Z4	X5	Y5	Z5	X6	Y6	Z6	X7	Y7	Z7	X8	Y8	Z8	X9	Y9	Z9	X10	Y10	Z10	X11	Y11	Z11	X12	Y12	Z12	X13	Y13	Z13	X14	Y14	Z14	X15	Y15	Z15	X16	Y16	Z16	X17	Y17	Z17	X18	Y18	Z18	X19	Y19	Z19	X20	Y20	Z20	X21	Y21	Z21	X22	Y22	Z22	X23	Y23	Z23	X24	Y24	Z24	X25	Y25	Z25	X26	Y26	Z26	X27	Y27	Z27	X28	Y28	Z28	X29	Y29	Z29	X30	Y30	Z30	X31	Y31	Z31	X32	Y32	Z32	X33	Y33	Z33	X34	Y34	Z34	X35	Y35	Z35	X36	Y36	Z36	X37	Y37	Z37	X38	Y38	Z38	

11	0.04166666666666666	120.6443710327149	1096.59033203125	23.36425399780274	20.67974281311036	1070.146118164063	65.94158935546876	92.5490188598633	1052.144409179688	-180.6626129150391	-105.5590744018555	978.889831542969	-84.18133544921876	246.8957672119141	827.7824707031252	-260.8812561035157	206.6640167236329	835.1386718750002	-306.0187683105469	235.7271881103516	762.6170654296876	-313.4382324218751	190.4192810058594	764.5390625000001	-350.7066955566407	300.5607604980469	335.4460144042969	-403.8174743652345	282.2841491699219	336.7445678710938	-462.6557617187501	301.2131958007813	285.6340942382813	-435.0117797851564	272.5204467773438	284.3894348144532	-487.8002929687501	300.7565307617188	116.5623397827149	-415.821258544922	264.2054138183594	81.82430267333986	-418.2864074707032	324.0928039550782	80.55562591552736	-439.8187255859376	227.2748107910157	110.4347763061524	-473.2491455078126	324.9059448242188	102.4686660766602	-500.5188293457032	220.6764831542969	137.3891296386719	-524.5945434570314	210.9370880126954	125.9227905273438	-558.9801025390626	252.4890441894532	150.7093811035157	-582.0181884765626	315.3353271484376	83.78003692626955	-549.7001953125001	185.5445404052735	108.3315658569336	-608.7368774414064	231.4412994384766	123.5146560668946	-640.9231567382814	300.8819580078126	84.2468948364258	-628.9142456054689	201.9055633544922	132.9239807128907	-688.8910522460939	0.4165436029434205	700.4221191406251	66.57176971435548	-15.02817153930664	672.9397583007814	14.79361534118653	29.28143882751466	621.4523925781251	57.57106399536134	26.18278121948243	598.7169189453126	0.7292146086692811	286.5664062500001	485.1583862304689	333.3505249023438	291.4082641601563	431.0684204101564	335.5827941894532	316.7111206054688	456.3129272460939	371.3158874511719	333.1802062988282	402.5666503906251	363.7386779785157	438.0421752929689	493.5614624023439	451.0059814453126	431.8554992675782	493.8368530273439	498.6525268554689	482.7578735351564	493.7615051269532	467.7769470214845	506.5585327148439	273.9807434082032	466.6877746582032	431.2759399414064	303.4866333007813	541.5517578125001	
12	0.04583333333333333	116.5256500244141	1093.741821289063	6.218802452087404	16.46343994140625	1067.7412109375	48.55475997924806	88.02932739257814	1050.682983398438	-198.4161987304688	-111.1158065795899	978.319030761719	-101.2525177001953	241.7283630371094	824.7269287109377	-277.1886596679688	202.3053588867188	832.2388916015627	-322.7717285156251	230.1138763427735	759.1987915039064	-329.2294006347657	185.1429443359375	761.4351806640626	-366.9248046875001	297.3490600585938	331.3980407714844	-414.924285888672	278.6849670410157	331.6553649902344	-473.6062316894532	298.2466735839844	281.1003417968751	-445.3128051757814	269.2019958496094	278.7757873535157	-497.8982543945314	298.9530029296876	112.2308502197266	-423.2812805175782	263.1661682128907	77.18052673339845	-425.0503234863282	323.1348571777344	76.39649963378908	-446.7085571289064	225.7681427001954	104.5172958374024	-480.5134887695314	323.7406005859376	97.62184906005862	-507.6074523925782	218.6155242919922	130.797119140625	-532.0911865234376	209.0032653808594	118.5606002807617	-566.3849487304689	250.2781829833985	143.7221221923828	-589.5972290039064	314.1241149902344	78.09474945068361	-556.6681518554689	183.9132385253907	100.0015945434571	-615.8400878906251	229.5225067138672	115.5395431518555	-648.4010620117189	299.6496582031251	77.40786743164064	-635.8402099609376	199.9105834960938	123.9765319824219	-696.3342285156251	-5.864713668823243	696.6036376953126	45.5322380065918	-22.3322925567627	669.9310913085939	-6.546184539794924	22.32802963256836	617.3432006835939	35.25911331176759	18.19776344299317	595.5958862304689	-21.88297271728516	277.0955200195313	488.6802368164064	307.7297668457032	282.3851928710938	434.7981262207032	311.5533752441407	307.3072814941407	461.3070678710939	346.7082824707032	324.4006347656251	407.5397033691407	340.6084899902344	427.6588134765626	502.3399658203126	426.0015563964845	421.4983825683595	503.9057922363282	473.585418701172	472.4226074218751	503.5313110351564	442.7461242675782	498.6696166992189	284.0052185058594	446.346160888672	422.9791870117189	314.3048706054688	520.5483398437501	
13	0.05	112.4768524169922	1090.828857421875	-10.94745922088623	12.41540336608887	1064.705688476563	31.713529586792	83.6914520263672	1049.087890625	-216.1881408691407	-116.5701751708985	977.4044189453127	-118.3462524414063	236.2006225585938	821.4753417968752	-293.4958801269532	197.6015625000001	829.1880493164065	-339.7829589843751	224.2034149169922	755.6796875000001	-345.0668945312501	179.7248077392578	758.0701904296876	-383.0812683105469	294.3683776855469	327.3535156250001	-425.4976806640626	275.2215270996094	326.2745056152344	-484.0614013671876	295.5113830566407	276.4786682128907	-455.0145568847657	266.0892639160157	272.9171142578126	-507.3034973144532	298.0033569335938	108.1839447021485	-429.7326049804689	262.6622619628907	72.44152832031251	-430.9802551269532	322.5450439453126	72.21839904785158	-452.6038208007814	224.7417297363282	98.40855407714847	-486.5329589843751	322.6560974121094	92.58168029785158	-513.7943725585939	216.9110107421876	123.8382110595703	-538.5139770507814	207.5334014892579	110.8219146728516	-572.5501098632814	248.2015686035157	136.3405456542969	-596.4226074218751	313.2351074218751	72.25621032714845	-562.5160522460939	182.6189880371094	91.21878814697267	-621.8385009765626	227.7654571533204	106.7797393798828	-654.6294555664064	298.6259155273438	70.12247467041017	-641.6080322265626	198.0306854248047	114.1086120605469	-702.6336059570314	-12.16066455841065	692.5570068359376	24.16896629333497	-29.33909606933594	667.0364379882814	-28.08578872680665	14.8614559173584	613.2536010742189	12.50194740295411	9.934374809265138	592.3107299804689	-44.78964233398438	266.9727783203126	492.0553588867189	281.9474792480469	273.0823974609376	438.1287536621095	287.1028137207032	297.5182189941407	465.6526794433595	321.6334838867188	315.3934936523438	412.1737365722657	316.8919677734376	416.9631347656251	510.7167053222657	400.6441040039064	410.6275634765626	513.2083129882814	448.1810607910157	461.6799316406251	512.7236328125001	417.2886962890626	490.6348266601564	293.5668640136719	424.6448974609376	414.7373962402345	323.8421630859376	497.9021301269532	
14	0.05416666666666667	108.4538192749024	1087.6748046875	-28.13530158996583	8.21322822570801	1061.98828125	13.1797161102295	79.50227355957033	1047.587524414063	-233.9529113769532	-121.8089828491211	976.4680175781252	-135.5248107910157	230.4600982666016	818.179138183594	-309.8546142578126	192.7096557617188	826.0923461914065	-356.7959899902344	218.1499786376954	752.0410766601564	-360.8918762207032	173.8794860839844	754.5964965820314	-399.300994873047	292.1988525390626	323.3606567382813	-435.8105468750001	271.9592895507813	320.7684020996094	-493.9866333007814	293.1329650878907	271.8021545410157	-464.0769348144532	263.3457641601563	266.8847045898438	-516.0621948242189	297.5213317871094	104.3421173095703	-435.4044494628907	262.7154846191407	68.0388641357422	-435.6116027832032	322.4166564941407	68.24308013916017	-457.5868225097657	224.0177154541016	92.30610656738283	-491.4424133300782	321.9418640136719	87.47476959228517	-519.1536254882814	215.6523590087891	116.4748306274414	-544.1397705078126	206.2427978515626	102.9258804321289	-577.6770629882814	246.4126586914063	128.6368255615235	-602.3971557617189	312.5997619628907	66.1188201904297	-567.4514160156251	181.4574279785157	81.80579376220705	-626.3033447265626	226.2073822021485	97.69619750976565	-659.7661743164064	297.7319641113282	62.312801361084	-646.4138183593751	196.1820678710938	103.6298294067383	-707.7360839843751	-18.42839431762696	688.6586303710939	2.569266557693482	-36.25440979003907	664.0612182617189	-49.67818832397462	7.04956102371216	609.0886840820314	-10.81976890563965	1.7008056640625	589.0682983398439	-68.13614654541017	256.9316711425782	494.4407653808595	255.6358795166016	263.5186767578126	441.0368957519532	262.1443786621094	287.5323791503907	469.7828979492189	296.0972290039063	306.1869201660157	416.3373107910157	292.6087951660157	405.8371887207032	518.5608520507814	374.9079589843751	399.7302856445314	521.4777221679689	422.4246520996095	450.5249328613282	521.4035034179689	391.4922790527345	482.4353637695314	302.7910461425782	401.8524475097657	406.159393310547	333.2183837890626	474.9362182617189	
15	0.05833333333333333	104.4549942016602	1084.41015625	-45.18119049072266	4.136925220489503	1058.985595703125	-4.131103038787843	75.39424133300783	1046.097290039063	-251.8476562500001	-126.895378112793	975.401550292969	-152.917724609375	224.6104431152344	814.848083496094	-326.3119812011719	187.8037872314453	822.9683227539065	-373.8982238769532	211.8529510498047	748.3300781250001	-376.7225952148438	168.02001953125	751.0734863281251	-415.6253356933595	289.7301330566407	319.1260681152344	-445.4369506835939	269.1292724609376	315.1428222656251	-503.3787536621095	290.9026184082032	267.0172729492188	-472.6460266113282	260.8731689453126	260.8334960937501	-524.2832641601564	297.4511108398438	100.2936782836914	-440.5794677734376	263.0321655273438	64.23187255859376	-439.1954650878907	322.7843017578126	64.36611175537111	-461.906463623047	223.4874114990235	86.52618408203126	-495.3245544433595	321.5089721679688	82.24106597900392	-523.8616943359376	214.8012390136719	109.2669677734375	-548.9155273437501	205.2409210205079	94.78757476806642	-582.0396118164064	244.7841796875001	120.9038162231446	-607.4412231445314	312.2156982421876	59.88530349731447	-571.6231689453126	180.51416015625	72.25893402099611	-629.8743286132814	224.6970825195313	88.09735107421876	-663.9598388671876	296.9718933105469	54.21201705932619	-650.4384765625001	194.3069458007813	92.74819946289064	-711.8522949218751	-24.88176536560059	684.3131103515626	-19.33629989624024	-43.30116271972657	660.6665649414064	-71.67967224121095	-0.5388381481170655	604.6807250976564	-33.96941375732423	-6.559522151947023	585.3926391601564	-91.39666748046876	246.5935974121094	496.1684875488282	228.4412689208985	253.1873931884766	444.1471557617189	237.6817321777344	277.2164306640626	473.1721801757814	270.0442199707032	296.3257446289063	420.6512451171876	268.4037780761719	394.9526977539064	526.0159912109376	348.6920166015626	388.2699584960939	529.3306884765626	396.2511291503907	439.0992431640626	529.5108032226564	365.3473205566407	474.2939758300782	311.5804138183594	377.8003234863282	397.3606872558595	341.7812805175782	451.0368652343751	
